# xmcd
# 
# Track frame offsets:
#     150
#     8893
#     17972
#     27051
#     36130
#     44872
#     53951
#     63030
#     72109
#     80852
#     89931
#     99010
#     108089
#     117168
#     125911
#     134990
#     144069
#     153148
#     161890
#     170969
#     180048
#     189127
#     197870
#     206949
#     216364
#     225107
#     234186
#     242929
#     252008
#     261087
#     270166
#     278908
#     287987
#     297066
#     306145
#     314888
#     324303
#     333046
#     342461
# 
# Disc length: 4687
# 
# Revision: 0
# Processed by: cddbd v1.5.2PL0 Copyright (c) Steve Scherf et al.
# Submitted via: BonkEnc v1.0.8
# 
DISCID=3f124d27
DTITLE=Various Artist - DJ LRM - Instrumental World V. 14 (We Are The Streets)
DYEAR=2003
DGENRE=Hip-Hop
TTITLE0=Dinero and Kernal - Freestyle (Backdraft Ent.)
TTITLE1=Clipse - The Funeral
TTITLE2=Clipse - Got Caught Dealin' Pt. 2 (We Got Money)
TTITLE3=Clipse - Grindin'
TTITLE4=Clipse - When The Last Time
TTITLE5=Clipse Feat. Faith Evans - Ma I Don't Love Her
TTITLE6=Clipse Feat. AB Liva and Roscoe P. - Got Damn
TTITLE7=Clipse Feat. Jermaine Dupri - Let's Talk About It
TTITLE8=Clipse - Gangsta Lean
TTITLE9=Clipse - Virginia
TTITLE10=Clipse - Pussy
TTITLE11=Fat Joe Feat. Armageddon - Murder Rap
TTITLE12=Fat Joe Feat. Cuban Link - Why Me
TTITLE13=Fat Joe Feat. R. Kelly - We Thuggin'
TTITLE14=Fat Joe Feat. Ja Rule and Ashanti - What's Luv?
TTITLE15=Fat Joe - My Lifestyle
TTITLE16=Fat Joe Feat. Remy - Opposites Attract (What They Like)
TTITLE17=Fat Joe - We Run This
TTITLE18=Fat Joe Feat. Tony Sunshine - It's Nothing
TTITLE19=Fat Joe Feat. Ginuwine - Crush Tonight
TTITLE20=Fat Joe Feat. Tony Sunshine - All I Need
TTITLE21=Fat Joe - Take A Look At My Life
TTITLE22=Fat Joe Feat. Remy and Tony Sunshine - TS Piece
TTITLE23=Fat Joe Feat. Baby and Scarface - Bust At You
TTITLE24=Fat Joe Feat. Lamajic - Born In The Ghetto
TTITLE25=Fat Joe - Gangsta
TTITLE26=Fat Joe - Oh Yeah
TTITLE27=Fat Joe - Can't Be Serious Feat. Remy
TTITLE28=Fabolous Feat. Nate Dogg - Can;t Deny It
TTITLE29=Fabolous - What's My Name
TTITLE30=Fabolous - Keepin' It Gangsta
TTITLE31=Fabolous - Right Now and Later On
TTITLE32=Fabolous - Young'n (Holla Back)
TTITLE33=Fabolous Feat. Jagged Edge - Trade It All
TTITLE34=Fabolous Feat. Paul Cain - Why Wouldn't I
TTITLE35=Fabolous Feat. Mike Shorey and Lil Mo - Can't Let You Go
TTITLE36=Fabolous - Damn
TTITLE37=Fabolous Feat. Mike Shorey - Make U Mine
TTITLE38=Fabolous - Now Ride
EXTD=
EXTT0=
EXTT1=
EXTT2=
EXTT3=
EXTT4=
EXTT5=
EXTT6=
EXTT7=
EXTT8=
EXTT9=
EXTT10=
EXTT11=
EXTT12=
EXTT13=
EXTT14=
EXTT15=
EXTT16=
EXTT17=
EXTT18=
EXTT19=
EXTT20=
EXTT21=
EXTT22=
EXTT23=
EXTT24=
EXTT25=
EXTT26=
EXTT27=
EXTT28=
EXTT29=
EXTT30=
EXTT31=
EXTT32=
EXTT33=
EXTT34=
EXTT35=
EXTT36=
EXTT37=
EXTT38=
PLAYORDER=
